<svg width="10" height="6" viewBox="0 0 10 6" fill="none" xmlns="http://www.w3.org/2000/svg">
<path fill-rule="evenodd" clip-rule="evenodd" d="M9.68002 0.315277C9.47369 0.111935 9.19905 0 8.90722 0C8.61523 0 8.34074 0.111935 8.13457 0.315277L4.99985 3.40166L1.86559 0.314378C1.4394 -0.104443 0.746478 -0.104443 0.320898 0.314228C0.11427 0.51727 0.00030492 0.787293 6.07864e-07 1.0747C-0.000303704 1.3627 0.113661 1.63333 0.320593 1.83712L4.22781 5.68517C4.43398 5.88821 4.70817 6 4.99985 6C5.2929 6 5.56769 5.88791 5.7725 5.68502L9.68002 1.83712C9.88619 1.63378 10 1.3636 10 1.0762C10 0.788642 9.88619 0.518469 9.68002 0.315277Z" fill="white"/>
</svg>
