<svg width="24" height="18" viewBox="0 0 24 18" fill="none" xmlns="http://www.w3.org/2000/svg">
<path d="M22.475 17.6627H6.65704C6.00511 17.6627 5.47672 17.1343 5.47672 16.4823C5.47672 15.8304 6.00511 15.302 6.65704 15.302H22.4746C23.1266 15.302 23.6549 15.8304 23.6549 16.4823C23.6549 17.1343 23.1269 17.6627 22.475 17.6627Z" fill="white"/>
<path d="M22.475 10.2537H6.65704C6.00511 10.2537 5.47672 9.72533 5.47672 9.07339C5.47672 8.42146 6.00511 7.89307 6.65704 7.89307H22.4746C23.1266 7.89307 23.6549 8.42146 23.6549 9.07339C23.6553 9.72533 23.1269 10.2537 22.475 10.2537Z" fill="white"/>
<path d="M22.475 2.84479H6.65704C6.00511 2.84479 5.47672 2.31639 5.47672 1.66446C5.47672 1.01252 6.00511 0.484131 6.65704 0.484131H22.4746C23.1266 0.484131 23.6549 1.01252 23.6549 1.66446C23.6549 2.31639 23.1269 2.84479 22.475 2.84479Z" fill="white"/>
<path d="M1.58518 3.34101C2.46065 3.34101 3.17036 2.63131 3.17036 1.75583C3.17036 0.880364 2.46065 0.170654 1.58518 0.170654C0.709709 0.170654 0 0.880364 0 1.75583C0 2.63131 0.709709 3.34101 1.58518 3.34101Z" fill="white"/>
<path d="M1.58518 10.6586C2.46065 10.6586 3.17036 9.94893 3.17036 9.07346C3.17036 8.19799 2.46065 7.48828 1.58518 7.48828C0.709709 7.48828 0 8.19799 0 9.07346C0 9.94893 0.709709 10.6586 1.58518 10.6586Z" fill="white"/>
<path d="M1.58518 17.9763C2.46065 17.9763 3.17036 17.2666 3.17036 16.3911C3.17036 15.5156 2.46065 14.8059 1.58518 14.8059C0.709709 14.8059 0 15.5156 0 16.3911C0 17.2666 0.709709 17.9763 1.58518 17.9763Z" fill="white"/>
</svg>
