<svg width="17" height="17" viewBox="0 0 17 17" fill="none" xmlns="http://www.w3.org/2000/svg">
<path fill-rule="evenodd" clip-rule="evenodd" d="M8.58942 10.3673L14.5317 16.3897C15.0965 16.9621 16.0116 16.9618 16.5764 16.3894C17.1411 15.817 17.1411 14.8891 16.5764 14.3168L10.6344 8.29466L16.1715 2.68285C16.7363 2.11047 16.7363 1.18263 16.1712 0.610595C15.6064 0.0382107 14.691 0.0382107 14.1262 0.610595L8.58942 6.22205L2.87377 0.429288C2.309 -0.143096 1.39352 -0.143096 0.828755 0.429288C0.263991 1.00167 0.26399 1.92951 0.828755 2.50189L6.54441 8.29466L0.423573 14.4981C-0.141191 15.0705 -0.141191 15.9983 0.423574 16.5707C0.988338 17.1431 1.90382 17.1431 2.46859 16.5707L8.58942 10.3673Z" fill="white"/>
</svg>
